<?xml version="1.0" encoding="utf-8"?>
<!-- Generator: Adobe Illustrator 22.0.1, SVG Export Plug-In . SVG Version: 6.00 Build 0)  -->
<svg version="1.1" id="Слой_2" xmlns="http://www.w3.org/2000/svg" xmlns:xlink="http://www.w3.org/1999/xlink" x="0px" y="0px"
	 viewBox="0 0 170.2 53.7" style="enable-background:new 0 0 170.2 53.7;" xml:space="preserve">
<style type="text/css">
	.st0{fill:#EF3F25;}
	.st1{fill:#333333;}
	.st2{fill:#EF3E25;}
	.st3{fill:#787878;}
	.st4{fill:#FAFAF9;}
	.st5{fill:#EE3D26;}
	.st6{fill:#FEF3F0;}
	.st7{fill:#F6F6F5;}
	.st8{fill:#FDFDFD;}
	.st9{fill:#FEF2EE;}
</style>
<g>
	<path class="st0" d="M49.2,45.5c-2.7,0-5.5,0-8.2,0c-0.8,0-1.2,0.5-0.9,1.3c0.5,1.3,1.5,2,2.8,2.1c2,0.2,4,0.3,5.7-1
		c0.6-0.4,1.2-0.5,1.9-0.5c2.2,0,4.5,0,6.7,0c0.2,0,0.6,0,0.7,0.1c0.2,0.3-0.2,0.6-0.3,0.8c-0.8,1.4-2.1,2.3-3.5,3
		c-2.2,1.2-4.7,1.9-7.3,2.1c-2.1,0.2-4.2,0.2-6.4,0c-1.9-0.2-3.7-0.7-5.4-1.5c-2-1-3.2-2.5-3.5-4.7c0-0.2-0.1-0.5-0.2-0.7
		c-0.2,0.2-0.5,0.3-0.6,0.5c-1.4,3.7-4.6,5.1-8,5.8c-4.4,1-8.9,1.4-13.5,0.7C7.1,53.2,4.9,53,2.9,52c-2.1-1-2.9-2.8-2.9-5.1
		c0-1,0.4-1.4,1.3-1.4c0.9,0,1.8,0,2.7,0c1.9,0,3.8,0,5.7,0c1,0,1.8,0,2.1,1.2c0.1,0.6,0.6,0.8,1.1,0.9c1.9,0.5,3.7,0.6,5.6-0.2
		c0.5-0.2,0.8-0.6,1.1-1c0.5-0.7,0.4-1.5-0.3-1.9c-0.6-0.3-1.2-0.5-1.8-0.6c-3.5-0.5-7-0.9-10.5-1.5c-2-0.4-3.9-1.3-4.4-3.5
		C2.2,37,2.5,35,3.6,33.2c1.7-2.9,4.5-4,7.5-4.7c4.3-1,8.6-0.6,12.9-0.4c1.4,0,2.7,0.5,4,1c2.2,0.8,3.9,2,4.4,4.5
		c0.1,0.4,0.2,0.8,0.1,1.2c0,0.8-0.5,1.1-1.3,1c-3-0.5-6-0.2-8.9-0.1c-0.6,0-1-0.1-1.1-0.5c-0.4-1.4-1.4-1.7-2.7-1.7
		c-1.1,0-2.2,0-3.2,0c-0.6,0-1.1,0.2-1.6,0.6c-0.5,0.4-0.8,0.9-0.6,1.5c0.2,0.6,0.7,0.8,1.4,0.9c3.6,0.5,7.2,1,10.7,1.5
		c2.7,0.4,5.1,1.3,6.3,4.1c0.2,0.4,0.4,0.4,0.6-0.1c0.5-1.2,1.1-2.4,2-3.4c2-2.2,4.4-3.6,7.3-4.4c4.1-1,8.1-1,12.2,0.2
		c3.8,1.1,5.8,4.1,5.6,7.5c0,0.1,0,0.2,0,0.2c0,3.4,0,3.4-3.4,3.4C53.6,45.5,51.4,45.5,49.2,45.5z"/>
	<path class="st1" d="M84.2,6.8c-1,0-2,0.1-3,0c-0.6,0-1.1-0.1-0.8-1.1c0.5-1.4,0.6-2.9,0.9-4.3c0.2-1,0.2-1.1-0.9-1.1
		c-2.2,0-4.3,0-6.5,0c-1.5,0-1.6,0.1-1.9,1.7c-0.2,1.3-0.6,2.6-0.9,3.8c-0.2,0.9-0.6,1-1.3,1c-3.3,0-6.7,0-10,0
		c-2.3,0-2.3,0-2.8,2.4c0,0.2,0,0.5-0.1,0.7c-0.5,2.2-0.9,4.5-1.5,6.7c-0.5,1.9-1.6,3.2-3.4,3.9c-1.3,0.5-2.6,0.4-3.8-0.3
		c-1.2-0.8-0.7-2.1-0.7-3.2c0-0.2,0.1-0.3,0.1-0.5c0.4-2,0.9-4,1.3-6c0.2-1,0.4-2.1,0.6-3.2c0-0.3,0.2-0.8-0.6-0.7
		c-2.2,0.1-4.5,0.1-6.7,0.1c-1.5,0-1.6,0-1.9,1.5c-0.5,2.1-0.9,4.2-1.4,6.3c-0.5,2.4-1.2,4.8-1.1,7.3c0.1,2.7,1.2,4.3,3.9,5
		c4.1,1.2,8,0.4,11.5-2c0.7-0.5,0.8-0.2,0.7,0.4c-0.1,0.8,0.1,1.2,1,1.2c2.2-0.1,4.3,0,6.5,0c1,0,1.3-0.5,1.5-1.3
		c0.2-1.1,0.3-2.1,0.6-3.2c0.6-2.8,1.3-5.6,1.8-8.4c0.2-0.8,0.3-1.4,1.4-1.3c1,0.1,2-0.1,3,0.1c-0.3,1-0.3,2-0.5,3
		c-0.5,2.5-1.3,4.9-1.3,7.5c0,2.5,1,3.6,3.5,3.8c2.8,0.2,5.7,0,8.5,0c0.8,0,1.4-0.3,1.5-1c0.1-0.3,0.1-0.5,0.1-0.8
		c0-0.1,0-0.3,0-0.4c0-0.1,0-0.2,0-0.3c0.1-0.3,0.1-0.7,0.2-1c0-0.1,0-0.1,0.1-0.2c0-0.1,0-0.2,0-0.3c0.1-0.2,0.1-0.4,0.1-0.6
		c0,0,0-0.1,0-0.1c0-0.1,0-0.1,0-0.2c0-0.1,0-0.2,0-0.3c0-0.1,0-0.2,0.1-0.3c-0.2-0.2-0.4-0.3-0.8-0.5c-3-1.2-3.1-1.2-2.4-4.4
		c0.5-2.5,0.1-3.6,3.9-3.5c0.3,0,0.6-0.1,0.9-0.3c0.1-0.1,0.2-0.2,0.3-0.3c0.3-1.5,0.7-3.1,1-4.6C85.2,7.2,85,6.8,84.2,6.8z"/>
	<path class="st0" d="M88.8,53c-1.2,0-2.5,0-3.7,0c-0.9,0-1.3-0.4-1.5-1.3c-0.6-2.9-1.4-5.7-2.1-8.6c-0.1-0.5-0.3-0.9-0.4-1.4
		c-0.1-0.5-0.3-0.8-0.8-0.7c-2.5,0.1-4.9-0.2-7.4,0.4c-2.9,0.8-4.2,2.6-4.7,5.4c-0.3,1.7-0.7,3.4-1,5.1C67,52.6,66.9,53,66,53
		c-2.2-0.1-4.3,0-6.5,0c-0.9,0-1-0.5-0.8-1.1c0.7-3.5,1.5-6.9,2.2-10.3c0.4-2.1,0.9-4.2,1.3-6.3c0.1-0.6,0.4-0.9,1-0.9
		c2.2,0,4.5,0,6.7,0c0.6,0,0.9,0.3,0.6,0.9c0,0.1-0.1,0.1-0.1,0.2c-0.2,0.6-0.5,1.4-0.1,1.6c0.6,0.4,0.8-0.5,1.2-0.8
		c1.7-1.1,3.4-2,5.5-2c3.5,0,7,0,10.5,0c1.3,0,1.5,0.2,1.6,1.3c0.4,2.9,0.7,5.7,1.1,8.6c0,0.2,0.1,0.6,0.3,0.6
		c0.4,0.1,0.5-0.2,0.7-0.5c1.3-2.5,2.7-4.9,4-7.4c0.3-0.6,0.6-1.2,1-1.7c0.4-0.6,0.9-0.9,1.6-0.9c5.2,0,10.3,0,15.5,0
		c0.8,0,1,0.4,0.9,1.1c-1.3,5.5-2.4,11-3.4,16.6c-0.1,0.6-0.3,0.9-0.9,0.9c-2.3,0-4.7,0-7,0c-0.6,0-0.7-0.4-0.6-0.8
		c0.2-1.4,0.5-2.7,0.8-4.1c0.8-3.8,1.6-7.7,2.5-11.5c0-0.2,0.2-0.3,0-0.4c-0.2-0.1-0.5,0-0.6,0.2c-3,5.1-6.6,9.8-9.7,14.9
		c-0.8,1.3-1.7,2.1-3.4,1.8C90.7,52.8,89.8,53,88.8,53z"/>
	<path class="st1" d="M26.2,0.5c1.7,0,3.5,0,5.2,0c0.8,0,1.1,0.2,1.3,1.1c0.9,4.5,1.9,9,3,13.5c0.9,3.6,1.3,7.3,2.4,10.8
		c0.2,0.5,0,0.8-0.6,0.8c-3.2,0-6.3,0-9.5,0c-0.6,0-0.9-0.3-0.9-0.9c0-0.4-0.1-0.8-0.2-1.2c-0.2-0.6-0.5-0.9-1.2-0.9
		c-2.8,0.1-5.7,0.1-8.5,0c-1.1,0-1.7,0.6-2,1.5c-0.5,1.3-1.4,1.6-2.7,1.5c-2.7-0.1-5.5,0-8.2,0.1c-0.2,0-0.5,0.2-0.6-0.1
		c-0.1-0.2-0.1-0.5,0-0.7c0.9-1.5,1.9-2.9,2.8-4.4C10.6,14.9,14.9,8.3,19,1.6c0.6-0.9,1.1-1.3,2.2-1.2C22.8,0.5,24.5,0.5,26.2,0.5z"
		/>
	<path class="st1" d="M84.1,12.5c0.2-0.1,0.4-0.2,0.6-0.4c2.3-3.6,5.7-5,9.7-5.7c2.6-0.5,5.3-0.5,7.9-0.4c2.1,0.1,4.1,0.5,6,1.3
		c2.9,1.2,4.6,3.2,4.5,6.7c-0.1,3.9-1.3,7.3-4.3,9.9c-2,1.8-4.4,2.5-6.9,3c-2.9,0.6-5.8,0.6-8.7,0.5c-2-0.1-3.9-0.5-5.8-1.2
		c-1.6-0.6-2.8-1.7-3.9-2.9C81.2,19.7,81.6,15.5,84.1,12.5C84.1,12.4,84.1,12.5,84.1,12.5z"/>
	<path class="st2" d="M164.9,35.2c-1.5-0.7-3.1-1.1-4.7-1.3c-5-0.8-9.7-0.1-14,2.5c-1.8,1.1-3.1,2.5-3.8,4.5c0,0,0,0,0,0
		c0,0.1-0.1,0.3-0.2,0.4c0,0.1,0,0.2-0.1,0.3c0,0.2,0,0.4-0.1,0.6c0,0.1-0.1,0.2-0.1,0.2c0,0.2-0.1,0.4-0.2,0.6c0,0.1,0,0.3-0.1,0.4
		c0,0.1-0.1,0.3-0.1,0.4c0,0.1,0,0.2,0,0.2c0,0.3,0,0.6-0.1,0.8c0,0,0,0.1,0,0.1c0,0.3-0.1,0.7-0.1,1c0,0,0,0,0,0.1
		c0,0.1,0,0.2,0,0.3c0,0.1,0,0.1,0,0.1c0,0,0,0,0,0.1c0,0.1,0,0.2,0,0.3c0,0,0,0.1,0,0.1c0,0.1,0,0.2,0,0.3c0,0.1,0.1,0.2,0,0.3
		c0,0,0,0.1,0,0.1c0,0,0,0,0,0c-0.1,1.2,0.5,2.1,1.2,2.9c1.8,2.1,4.3,2.6,6.8,3.1c2.7,0.5,5.4,0.2,8.1,0c4-0.4,7.5-2,10-5.3
		c0.1-0.2,0.4-0.3,0.2-0.6c-0.1-0.1-0.3-0.1-0.5-0.1c-2.5,0-5,0-7.5,0c-0.5,0-1,0-1.4,0.4c-1.7,1.5-3.7,1.2-5.7,1.1
		c-1.2-0.1-2.1-0.8-2.8-1.8c-0.5-0.8-0.3-1.5,0.7-1.6c0.5-0.1,1,0,1.5,0c4.7,0,9.3,0,14,0c0.6,0,1.2,0,1.7,0c0.4,0,0.6-0.1,0.7-0.5
		C169.4,41.6,168.6,37,164.9,35.2z"/>
	<path class="st0" d="M141.3,40.4C141.3,40.4,141.3,40.4,141.3,40.4c-0.1-0.2-0.1-0.4-0.1-0.7c0-0.7-0.2-1.4-0.5-2.1
		c-0.9-1.7-2.4-2.5-4-3.1c-1.9-0.7-3.8-0.9-5.8-1c-2.1-0.1-4.1,0-6.2,0.4c-5.2,0.9-10,3.2-11.4,9.7c-0.9,4-0.2,7.6,4.8,9.1
		c5,1.5,10,1.3,15-0.1c3.1-0.9,5.4-2.8,6.8-5.7c0.1-0.2,0.1-0.5,0.3-0.7c0,0,0,0,0.1-0.1c0.1-0.1,0.1-0.2,0.2-0.3
		c0-0.1,0.1-0.1,0.1-0.2c0.1-0.1,0.1-0.2,0.2-0.4c0,0,0-0.1,0-0.1c0-0.1,0.1-0.2,0.1-0.2c0-0.1,0.1-0.2,0.1-0.2
		c0-0.1,0.1-0.2,0.1-0.2c0,0,0,0,0,0h-7.8c-0.1,0-0.3,0.1-0.4,0.1c-0.9,1.1-2.5,2.1-3.9,2.5c-0.6,0.4-1.5,0.5-2.3,0.5
		c-3.1,0-4.5-2.3-3.2-5.1c1.5-3.2,6-3.9,8.3-1.4c0.3,0.3,0.5,0.6,0.8,0.9h8.7c0.1,0,0.1,0,0.1,0c0,0,0.1,0,0.1,0
		C141.5,41.5,141.4,40.9,141.3,40.4z"/>
	<path class="st3" d="M142.4,32.4c-8.1,0-16.2,0-24.2,0c-0.6,0-1.2,0-1.7,0c-0.7,0-0.8-0.4-0.8-0.9c0-0.2,0.1-0.3,0.2-0.5
		c0.5-0.9,0.1-2.3,1-2.9c0.9-0.6,2.1-0.2,3.2-0.2c15.9,0,31.8,0,47.7,0c0.6,0,1.2,0,1.7,0c0.5,0,0.7,0.3,0.6,0.8
		c-0.3,1.2-0.3,2.6-1.1,3.4c-0.8,0.9-2.4,0.3-3.6,0.3C157.7,32.5,150,32.4,142.4,32.4z"/>
	<path class="st4" d="M84.1,12.4c0,0.2,0,0.5-0.1,0.7c-1.6,3.3-2,6.6-0.9,10.1c-0.1,0.7-0.6,0.7-1.1,0.7c0-0.2,0-0.5,0-0.7
		c0.1-1.7,0.1-1.7-1.6-1.7c-0.2,0-0.3,0-0.5,0c-2.8,0.2-2.6-0.9-2.3-2.7c0.2-1.4,0.6-2.9,0.9-4.3c0.4-2,0.4-2,2.3-2
		C82,12.4,83.1,12.4,84.1,12.4z"/>
	<path class="st5" d="M111.6,27.9c0.4,0,0.8,0,1.2,0c2.8,0,2.8,0,2.1,2.9c-0.4,1.6-0.4,1.6-2.1,1.7c-2,0-4,0-6,0
		c-0.7,0-0.9-0.3-0.8-0.9c0-0.1,0-0.2,0-0.2c0.6-1,0.1-2.5,1.1-3.2c0.9-0.6,2.2-0.2,3.4-0.2C111,27.9,111.3,27.9,111.6,27.9z"/>
	<path class="st6" d="M45.9,41.4c-1.4,0-2.8,0-4.2,0c-0.6,0-0.7-0.4-0.4-0.8c0.3-0.6,0.6-1.2,1.2-1.6c2.3-1.2,4.7-1.6,7.1-0.4
		c0.6,0.3,1.1,0.7,1.4,1.3c0.4,1.1,0.2,1.5-1,1.5C48.6,41.4,47.2,41.4,45.9,41.4z"/>
	<path class="st7" d="M22.3,17.4c-0.8-0.2-1.8,0.4-2.6-0.3c0.4-0.8,0.8-1.6,1.3-2.3c1-1.9,2-3.7,3.1-5.6c0.1-0.2,0.3-0.4,0.4-0.6
		c0.1,0.2,0.1,0.3,0.2,0.5c0.3,2.4,0.7,4.9,1,7.3c0.1,0.7-0.1,1.1-0.9,1.1C24,17.4,23.2,17.4,22.3,17.4z"/>
	<path class="st8" d="M96.7,21.5c-4,0-5.1-1.5-4.2-5.4c0.6-2.5,2.9-4.2,5.1-4.2c0.8,0,1.7-0.1,2.5,0c1.9,0.2,2.9,1.4,2.9,3.3
		C103.1,19.1,100.7,21.5,96.7,21.5z"/>
	<path class="st9" d="M155.9,38c1.9-0.1,3.6,0.3,4.4,2.3c0.3,0.8,0.3,1.1-0.6,1.1c-3,0-6,0-8.9,0c-0.7,0-0.5-0.3-0.3-0.7
		C151.6,38.5,153.6,38,155.9,38z"/>
</g>
</svg>
